# xmcd
#
# Track frame offsets: 
#        150
#        34482
#        56469
#        86906
#        135564
#        186137
#
# Disc length: 2839 seconds
#
# Revision: 0
# Processed by: cddbd v1.5.1PL0 Copyright (c) Steve Scherf et al.
# Submitted via: ExactAudioCopy v0.95a5
#
DISCID=500b1506
DTITLE=Nikki Armstrong and Whole Lotta Blue - Nikki Armstrong Live
DYEAR=2004
DGENRE=Blues
TTITLE0=I Just Wanna Make Love To You
TTITLE1=Clean Up Woman
TTITLE2=God Bless The Child
TTITLE3=Use Me
TTITLE4=Voodoo Man
TTITLE5=Love The One You're With
EXTD=
EXTT0=
EXTT1=
EXTT2=
EXTT3=
EXTT4=
EXTT5=
PLAYORDER=
